<svg xmlns="http://www.w3.org/2000/svg" viewBox="0 0 404.833 141.667"><path d="M58.155 102.817v36.945H2.209v-1.23h9.851V3.417H2.209V2.185H57.1v36.769h-1.232c0-32.019-12.314-34.483-27.621-34.483v63.864c14.427 0 15.834-10.556 15.834-25.334h1.231v51.372h-1.231c0-14.779-1.407-24.807-15.834-24.807v67.908c15.307 0 28.677-3.342 28.677-34.658h1.231v.001zm315.919-24.98v-8.27c14.426 0 15.834 10.027 15.834 24.807h1.231V43.002h-1.231c0 14.778-1.408 25.334-15.834 25.334V4.472c15.305 0 27.623 2.464 27.623 34.483h1.228V2.185h-54.891v1.231h9.854v135.115h-9.854v1.23h55.947v-36.945h-1.23c0 31.316-13.373 34.658-28.678 34.658V77.837h.001zm21.705 57.185c0-1.639 1.344-2.982 2.982-2.982s2.982 1.344 2.982 2.982a2.983 2.983 0 0 1-5.964 0zm.487 0a2.504 2.504 0 0 0 2.496 2.508 2.503 2.503 0 0 0 0-5.004 2.503 2.503 0 0 0-2.496 2.496zm1.58-1.623h.592c.824 0 1.254.324 1.254.928 0 .488-.266.77-.812.902l1.092 1.416h-.59l-1.047-1.373-.016 1.373h-.473v-3.246zm.65.428h-.178v1.033h.191c.459 0 .709-.178.709-.518.001-.353-.236-.515-.722-.515zm-131.476 4.705c15.307 0 28.676-4.398 28.676-35.715h1.232v36.945H240.98v-1.23h9.854V3.417h-9.854V2.185h35.891v1.231h-9.852v135.116h.001zm-121.664 0c15.306 0 28.676-4.398 28.676-35.715h1.233v36.945h-55.947v-1.23h9.852V3.417h-9.852V2.185h35.89v1.231h-9.852v135.116z" fill="#fff"/></svg>